<?xml version="1.0" encoding="utf-8"?>
<!-- Generator: Adobe Illustrator 16.0.3, SVG Export Plug-In . SVG Version: 6.00 Build 0)  -->
<!DOCTYPE svg PUBLIC "-//W3C//DTD SVG 1.1//EN" "http://www.w3.org/Graphics/SVG/1.1/DTD/svg11.dtd">
<svg version="1.1" xmlns="http://www.w3.org/2000/svg" xmlns:xlink="http://www.w3.org/1999/xlink" x="0px" y="0px" width="500px"
	 height="500px" viewBox="0 0 500 500" enable-background="new 0 0 500 500" xml:space="preserve">
<g id="BACKGROUND">
	<g>
		<g>
			<rect fill="#356CBC" width="500" height="500"/>
		</g>
		<g>
			<path fill="#F7F7F7" d="M366,28c49.477,33.21,85.637,62.276,134,64.491V0H309.264C326.932,5.879,346.244,14.739,366,28z"/>
			<path fill="#FFFFFF" d="M28.102,422.582c-12.004-0.414-21.147-5.401-28.102-12.4V500h183.871
				C197.161,437.395,67.196,423.93,28.102,422.582z"/>
		</g>
	</g>
</g>
<g id="OBJECTS">
	<g>
		<g>
			<path fill="#1AE5FF" d="M368.705,358.057c1.473,0.851,2.666,2.917,2.661,4.609c-0.005,1.704-1.205,2.388-2.679,1.537
				l-24.271-14.014c-1.474-0.851-2.667-2.916-2.662-4.619c0.005-1.693,1.206-2.378,2.679-1.526L368.705,358.057z"/>
		</g>
		<g>
			<g opacity="0.57">
				<path fill="#1AE5FF" d="M71.629,205.042c-1.614,0.932-2.93,3.219-2.925,5.083l0.196,69.029c0.013,4.399,3.14,6.198,6.949,3.999
					l41.12-23.74c1.614-0.932,2.93-3.219,2.925-5.083l-0.195-69.029c-0.013-4.399-3.14-6.199-6.949-3.999L71.629,205.042z"/>
			</g>
			<g>
				<g>
					<path fill="#FFFFFF" d="M77.938,230.058c-0.483,0.279-0.872,0.954-0.871,1.505l0.01,3.666c0.001,0.555,0.394,0.778,0.876,0.5
						l33.528-19.357c0.483-0.279,0.872-0.954,0.871-1.508l-0.01-3.666c-0.001-0.552-0.394-0.775-0.876-0.496L77.938,230.058z"/>
				</g>
				<g>
					<path fill="#FFFFFF" d="M77.961,238.036c-0.483,0.278-0.873,0.953-0.871,1.508l0.01,3.666c0.002,0.555,0.394,0.774,0.877,0.496
						l33.527-19.357c0.483-0.279,0.873-0.95,0.871-1.505l-0.011-3.666c-0.001-0.555-0.394-0.778-0.876-0.5L77.961,238.036z"/>
				</g>
			</g>
			<linearGradient id="SVGID_1_" gradientUnits="userSpaceOnUse" x1="88.9854" y1="243.6455" x2="103.9751" y2="243.6455">
				<stop  offset="0" style="stop-color:#CC68FF"/>
				<stop  offset="1" style="stop-color:#FB8E31"/>
			</linearGradient>
			<path fill="url(#SVGID_1_)" d="M91.049,243.977c-1.145,0.661-2.067,2.263-2.063,3.574l0.002,0.841
				c0.003,1.315,0.933,1.844,2.077,1.184l10.844-6.261c1.145-0.661,2.07-2.261,2.067-3.576l-0.002-0.841
				c-0.004-1.312-0.936-1.843-2.08-1.182L91.049,243.977z"/>
			<g>
				<g>
					<g>
						<path fill="#FFFFFF" d="M77.838,214.638c-0.483,0.279-0.872,0.954-0.871,1.505l0.01,3.666
							c0.001,0.555,0.394,0.777,0.876,0.499l33.528-19.356c0.483-0.279,0.872-0.954,0.871-1.509l-0.01-3.665
							c-0.001-0.553-0.394-0.775-0.876-0.496L77.838,214.638z"/>
					</g>
					<g>
						<path fill="#FFFFFF" d="M77.861,222.616c-0.483,0.278-0.873,0.953-0.871,1.508L77,227.79c0.002,0.555,0.394,0.774,0.877,0.495
							l33.527-19.356c0.483-0.278,0.873-0.95,0.871-1.505l-0.011-3.666c-0.001-0.555-0.394-0.777-0.876-0.499L77.861,222.616z"/>
					</g>
				</g>
			</g>
		</g>
		<g>
			
				<linearGradient id="SVGID_2_" gradientUnits="userSpaceOnUse" x1="113.5117" y1="363.9316" x2="155.6216" y2="50.9793" gradientTransform="matrix(-1 0 0 1 443.1533 0)">
				<stop  offset="0" style="stop-color:#1AE5FF"/>
				<stop  offset="0.2589" style="stop-color:#64E8F9"/>
				<stop  offset="0.7043" style="stop-color:#EAEEEE"/>
			</linearGradient>
			<path fill="url(#SVGID_2_)" d="M213.693,90.355c-0.11-0.063-0.22-0.125-0.33-0.184c-0.142-0.077-0.284-0.15-0.424-0.22
				c-0.141-0.07-0.28-0.136-0.419-0.198c-0.139-0.063-0.277-0.121-0.415-0.176c-0.14-0.056-0.28-0.108-0.418-0.157
				c-0.027-0.009-0.053-0.017-0.08-0.026c-0.011-0.003-0.021-0.007-0.031-0.01c-0.102-0.034-0.203-0.069-0.304-0.099
				c-0.144-0.043-0.286-0.083-0.428-0.118c-0.143-0.035-0.284-0.067-0.424-0.094c-0.152-0.03-0.304-0.055-0.453-0.075
				c-0.103-0.014-0.203-0.021-0.304-0.031c-0.015-0.001-0.03-0.004-0.045-0.005c-0.037-0.003-0.074-0.009-0.111-0.011
				c-0.164-0.011-0.326-0.017-0.485-0.016c-0.182,0-0.361,0.009-0.537,0.025c-0.203,0.019-0.402,0.048-0.596,0.086
				c-0.005,0.001-0.01,0.003-0.015,0.004c-0.006,0.001-0.012,0.003-0.018,0.005c-0.237,0.049-0.468,0.111-0.69,0.19
				c-0.292,0.104-0.572,0.233-0.837,0.387l-6.86,3.987c0.466-0.271,0.978-0.463,1.525-0.577c0.007-0.001,0.014-0.004,0.021-0.006
				c0.546-0.11,1.129-0.14,1.742-0.088c0.016,0.001,0.032,0.003,0.047,0.005c0.61,0.056,1.25,0.193,1.912,0.417
				c0.01,0.003,0.02,0.006,0.029,0.01c0.674,0.231,1.372,0.549,2.087,0.961l187.544,108.565l6.86-3.987L213.693,90.355z"/>
			
				<linearGradient id="SVGID_3_" gradientUnits="userSpaceOnUse" x1="27.5229" y1="280.6982" x2="44.6973" y2="280.6982" gradientTransform="matrix(-1 0 0 1 443.1533 0)">
				<stop  offset="0" style="stop-color:#5155D4"/>
				<stop  offset="1" style="stop-color:#45F7FF"/>
			</linearGradient>
			<path fill="url(#SVGID_3_)" d="M415.623,218.386c-0.005-0.167-0.013-0.333-0.023-0.501c-0.011-0.167-0.023-0.335-0.04-0.504
				c-0.016-0.168-0.034-0.337-0.056-0.507c-0.022-0.172-0.047-0.346-0.074-0.52c-0.001-0.005-0.002-0.01-0.003-0.015
				c-0.001-0.004-0.001-0.007-0.002-0.011c-0.025-0.166-0.055-0.332-0.086-0.498c-0.034-0.18-0.07-0.36-0.109-0.54
				c-0.04-0.18-0.081-0.361-0.126-0.542c-0.046-0.183-0.094-0.366-0.145-0.549c-0.04-0.142-0.082-0.284-0.124-0.425
				c-0.004-0.011-0.007-0.022-0.011-0.034c-0.009-0.029-0.017-0.058-0.025-0.087c-0.055-0.178-0.111-0.357-0.171-0.535
				c-0.06-0.176-0.121-0.352-0.185-0.527c-0.061-0.169-0.124-0.338-0.189-0.506c-0.065-0.167-0.133-0.335-0.202-0.502
				c-0.054-0.129-0.109-0.256-0.165-0.384c-0.003-0.008-0.006-0.016-0.01-0.024c-0.013-0.029-0.024-0.058-0.037-0.087
				c-0.074-0.167-0.15-0.335-0.229-0.501c-0.085-0.182-0.173-0.363-0.263-0.543c-0.104-0.208-0.211-0.414-0.32-0.619
				c-0.118-0.221-0.243-0.438-0.368-0.656c-0.021-0.039-0.042-0.077-0.064-0.115c-0.026-0.045-0.051-0.092-0.077-0.137
				c-0.244-0.415-0.5-0.823-0.767-1.223c-0.212-0.316-0.431-0.627-0.655-0.933c-0.15-0.204-0.304-0.405-0.46-0.604
				c-0.131-0.167-0.264-0.331-0.398-0.493c-0.132-0.158-0.265-0.314-0.399-0.468c-0.133-0.151-0.267-0.3-0.402-0.446
				c-0.027-0.029-0.055-0.057-0.082-0.085c-0.01-0.011-0.02-0.021-0.029-0.031c-0.104-0.11-0.206-0.22-0.312-0.327
				c-0.144-0.146-0.289-0.29-0.436-0.431c-0.15-0.144-0.303-0.285-0.455-0.423c-0.152-0.137-0.306-0.271-0.461-0.401
				c-0.077-0.065-0.155-0.127-0.233-0.191c-0.018-0.014-0.035-0.029-0.053-0.043c-0.058-0.047-0.116-0.096-0.175-0.142
				c-0.149-0.119-0.302-0.234-0.454-0.347c-0.149-0.11-0.299-0.216-0.45-0.32c-0.146-0.1-0.293-0.197-0.44-0.291
				c-0.146-0.092-0.291-0.182-0.438-0.269c-0.033-0.02-0.067-0.04-0.102-0.06l-6.86,3.987c0.706,0.408,1.395,0.889,2.061,1.428
				c0.017,0.014,0.034,0.028,0.051,0.042c0.658,0.537,1.293,1.131,1.897,1.774c0.01,0.01,0.02,0.021,0.029,0.031
				c1.221,1.301,2.317,2.794,3.242,4.388c0.021,0.038,0.042,0.078,0.064,0.116c0.447,0.782,0.856,1.585,1.215,2.404
				c0.004,0.01,0.008,0.02,0.013,0.029c0.364,0.837,0.679,1.687,0.937,2.539c0.003,0.012,0.006,0.022,0.01,0.034
				c0.256,0.854,0.456,1.709,0.591,2.555c0,0.003,0.001,0.007,0.001,0.01c0.136,0.853,0.206,1.694,0.203,2.515l-0.371,130.929
				c-0.002,0.804-0.076,1.546-0.211,2.229c-0.004,0.021-0.009,0.043-0.013,0.063c-0.137,0.67-0.333,1.278-0.584,1.822
				c-0.006,0.011-0.01,0.023-0.015,0.034c-0.214,0.457-0.489,0.839-0.776,1.202c-0.096,0.119-0.186,0.246-0.288,0.355
				c-0.342,0.364-0.712,0.688-1.131,0.933l6.86-3.987c0.419-0.243,0.789-0.567,1.131-0.933c0.103-0.109,0.191-0.234,0.287-0.354
				c0.123-0.155,0.263-0.289,0.373-0.462c0.142-0.222,0.271-0.458,0.391-0.708c0.005-0.011,0.009-0.022,0.014-0.033
				s0.009-0.021,0.014-0.031c0.078-0.169,0.153-0.342,0.221-0.523c0.065-0.176,0.126-0.357,0.181-0.545
				c0.051-0.172,0.097-0.348,0.138-0.529c0.017-0.073,0.03-0.151,0.046-0.227c0.004-0.021,0.008-0.043,0.013-0.063
				c0.014-0.072,0.03-0.143,0.043-0.216c0.028-0.162,0.053-0.327,0.074-0.495c0.021-0.163,0.037-0.329,0.052-0.499
				c0.013-0.16,0.022-0.323,0.03-0.488c0.007-0.165,0.011-0.332,0.012-0.501c0-0.01,0-0.021,0-0.03l0.371-130.928
				C415.631,218.698,415.628,218.542,415.623,218.386z"/>
			<g>
				<linearGradient id="SVGID_4_" gradientUnits="userSpaceOnUse" x1="196.0811" y1="227.0132" x2="408.7695" y2="227.0132">
					<stop  offset="0" style="stop-color:#7F5EFF"/>
					<stop  offset="0.2423" style="stop-color:#8665FF"/>
					<stop  offset="0.5952" style="stop-color:#9978FF"/>
					<stop  offset="0.94" style="stop-color:#B391FF"/>
				</linearGradient>
				<path fill="url(#SVGID_4_)" d="M398.456,204.976c5.718,3.301,10.332,11.294,10.313,17.864l-0.371,130.929
					c-0.019,6.569-4.664,9.216-10.381,5.915L206.395,249.05c-5.718-3.301-10.333-11.294-10.313-17.864l0.371-130.929
					c0.019-6.569,4.663-9.216,10.381-5.916L398.456,204.976z"/>
			</g>
			<g>
				<path fill="#F9FBFC" d="M386.628,204.686c5.256,3.035,9.498,10.382,9.48,16.422l-0.341,120.362
					c-0.018,6.04-4.287,8.474-9.543,5.438L219.09,250.474c-5.256-3.035-9.499-10.382-9.481-16.422l0.341-120.363
					c0.017-6.039,4.287-8.473,9.543-5.438L386.628,204.686z"/>
			</g>
			<path fill="#F9FBFC" d="M401.482,309.294L401.482,309.294c-0.772,0-1.398-0.626-1.398-1.398v-41.96
				c0-0.772,0.626-1.398,1.398-1.398l0,0c0.772,0,1.398,0.626,1.398,1.398v41.96C402.881,308.668,402.255,309.294,401.482,309.294z"
				/>
			<g>
				<path fill="#FFFFFF" d="M202.606,175c1.635,0.944,2.957,3.233,2.952,5.112s-1.336,2.637-2.971,1.693
					c-1.635-0.944-2.957-3.233-2.952-5.112S200.972,174.057,202.606,175z"/>
			</g>
		</g>
		<g>
			<linearGradient id="SVGID_5_" gradientUnits="userSpaceOnUse" x1="298.1748" y1="140.2188" x2="309.0694" y2="278.8764">
				<stop  offset="0" style="stop-color:#5155D4"/>
				<stop  offset="1" style="stop-color:#45F7FF"/>
			</linearGradient>
			<path fill="url(#SVGID_5_)" d="M317.521,192.768c0.521,1.73,0.896,3.466,1.102,5.167c0.124,1.021,0.187,2.029,0.184,3.018
				c-0.001,0.3-0.01,0.594-0.022,0.884c-0.002,0.044-0.003,0.089-0.006,0.133c-0.014,0.275-0.033,0.545-0.058,0.811
				c-0.005,0.052-0.01,0.103-0.015,0.154c-0.027,0.266-0.059,0.527-0.096,0.783c-0.053,0.348-0.096,0.595-0.144,0.838
				c-0.063,0.314-0.12,0.556-0.181,0.793c-0.011,0.041-0.021,0.082-0.031,0.122c-0.061,0.23-0.126,0.456-0.196,0.675
				c-0.013,0.041-0.026,0.08-0.04,0.12c-0.073,0.222-0.15,0.44-0.233,0.652c-0.105,0.264-0.192,0.463-0.282,0.657
				c-0.129,0.275-0.228,0.464-0.329,0.65c-0.02,0.036-0.039,0.072-0.06,0.107c-0.103,0.182-0.209,0.36-0.32,0.531
				c-0.019,0.027-0.036,0.054-0.055,0.081c-0.118,0.178-0.239,0.352-0.366,0.518c-0.132,0.171-0.264,0.33-0.4,0.483
				c-0.019,0.022-0.038,0.044-0.058,0.065c-0.131,0.146-0.267,0.286-0.406,0.42c-0.026,0.026-0.053,0.051-0.08,0.076
				c-0.14,0.132-0.283,0.259-0.431,0.38c-0.023,0.019-0.046,0.036-0.069,0.054c-0.147,0.118-0.298,0.231-0.453,0.338
				c-0.191,0.132-0.355,0.233-0.521,0.33c-0.031,0.018-0.063,0.037-0.094,0.054c-0.162,0.091-0.327,0.176-0.496,0.256
				c-0.034,0.017-0.069,0.032-0.104,0.048c-0.174,0.079-0.349,0.153-0.528,0.22c-0.148,0.053-0.243,0.08-0.336,0.11
				c-0.059-6.385-4.543-14.1-10.079-17.296c-5.591-3.228-10.137-0.638-10.154,5.777c0.008,0.014,0.162,0.27,0.46,0.724
				c-0.132-0.183-0.265-0.365-0.394-0.551c-0.25-0.362-0.42-0.615-0.587-0.869c-0.03-0.046-0.061-0.092-0.091-0.138
				c-0.178-0.272-0.352-0.547-0.522-0.824c-0.036-0.059-0.072-0.118-0.108-0.177c-0.174-0.285-0.346-0.571-0.513-0.86
				c-0.18-0.313-0.34-0.6-0.496-0.888c-0.03-0.056-0.062-0.111-0.092-0.167c-0.154-0.288-0.307-0.578-0.454-0.869
				c-0.027-0.053-0.053-0.106-0.08-0.16c-0.141-0.28-0.277-0.561-0.411-0.844c-0.18-0.379-0.315-0.68-0.447-0.981
				c-0.027-0.062-0.055-0.124-0.082-0.186c-0.13-0.3-0.257-0.602-0.379-0.904c-0.156-0.392-0.267-0.678-0.373-0.965
				c-0.018-0.048-0.036-0.095-0.054-0.143c-0.111-0.302-0.218-0.605-0.32-0.909c-0.021-0.061-0.04-0.122-0.061-0.182
				c-0.206-0.621-0.394-1.243-0.562-1.865c-0.017-0.062-0.033-0.123-0.05-0.185c-0.079-0.301-0.154-0.603-0.225-0.904
				c-0.013-0.054-0.024-0.107-0.037-0.161c-0.064-0.287-0.126-0.572-0.183-0.858c-0.08-0.402-0.133-0.705-0.182-1.005
				c-0.01-0.065-0.021-0.129-0.03-0.194c-0.047-0.301-0.09-0.602-0.126-0.901c-0.045-0.383-0.073-0.665-0.097-0.944
				c-0.005-0.051-0.01-0.102-0.014-0.152c-0.023-0.293-0.041-0.584-0.054-0.875c-0.003-0.062-0.005-0.124-0.007-0.186
				c-0.011-0.298-0.018-0.594-0.017-0.889c0.003-0.988,0.071-1.921,0.199-2.796c0.215-1.458,0.598-2.756,1.127-3.88
				c0.106-0.225,0.218-0.442,0.335-0.653c2.701-4.849,8.409-5.975,15.004-2.167c5.918,3.417,11.103,9.975,14.031,17.028
				c0.193,0.464,0.38,0.93,0.553,1.397C317.08,191.383,317.313,192.075,317.521,192.768z M302.551,193.248
				c3.411,1.97,6.18,0.383,6.19-3.528c0.012-3.92-2.739-8.684-6.15-10.654c-3.404-1.965-6.18-0.392-6.191,3.528
				C296.389,186.505,299.146,191.283,302.551,193.248"/>
			<g>
				<g>
					<path fill="#CFE3FF" d="M343.552,245.224c1.282,0.74,2.315,2.529,2.312,3.993l-0.028,9.726
						c-0.004,1.473-1.044,2.065-2.325,1.325l-88.963-51.362c-1.282-0.74-2.315-2.53-2.311-4.002l0.027-9.726
						c0.004-1.463,1.044-2.056,2.325-1.316L343.552,245.224z"/>
				</g>
				<g>
					<path fill="#CFE3FF" d="M343.492,266.393c1.281,0.74,2.314,2.529,2.311,4.002l-0.027,9.727
						c-0.004,1.473-1.044,2.056-2.326,1.316l-88.963-51.363c-1.281-0.74-2.314-2.52-2.311-3.993l0.027-9.727
						c0.005-1.472,1.045-2.065,2.326-1.325L343.492,266.393z"/>
				</g>
			</g>
		</g>
		<linearGradient id="SVGID_6_" gradientUnits="userSpaceOnUse" x1="292.4707" y1="245.7764" x2="292.4707" y2="294.1073">
			<stop  offset="0" style="stop-color:#7F5EFF"/>
			<stop  offset="0.2423" style="stop-color:#8665FF"/>
			<stop  offset="0.5952" style="stop-color:#9978FF"/>
			<stop  offset="0.94" style="stop-color:#B391FF"/>
		</linearGradient>
		<path fill="url(#SVGID_6_)" d="M303.811,270.638c2.39,1.38,4.317,4.726,4.31,7.464l-0.005,1.756
			c-0.008,2.746-1.948,3.852-4.337,2.472l-22.642-13.072c-2.39-1.38-4.323-4.721-4.315-7.467l0.005-1.756
			c0.008-2.738,1.954-3.848,4.344-2.468L303.811,270.638z"/>
		<g>
			
				<linearGradient id="SVGID_7_" gradientUnits="userSpaceOnUse" x1="545.0674" y1="296.8379" x2="574.1454" y2="271.4928" gradientTransform="matrix(-1 0 0 1 779.0996 0)">
				<stop  offset="0" style="stop-color:#1AE5FF"/>
				<stop  offset="0.2589" style="stop-color:#64E8F9"/>
				<stop  offset="0.7043" style="stop-color:#EAEEEE"/>
			</linearGradient>
			<path fill="url(#SVGID_7_)" d="M221.723,269.39c0,0-7.678,4.423-8.856,24.659c0.982,3.733,6.876,5.697,11.395,2.751
				C228.78,293.853,224.096,272.826,221.723,269.39z"/>
			<path fill="#FF9D6F" d="M260.758,291.24c0,0,17.582-7.83,19.946-9.16s4.138-6.206,5.024-7.24
				c0.886-1.034,4.875-3.398,4.728-2.364c-0.147,1.035-2.216,2.955-2.216,2.955s1.477,2.513,1.772,4.138s-1.921,4.876-3.103,5.762
				c-1.182,0.887-3.989,1.183-3.989,1.183s-14.332,9.604-16.696,9.752C263.86,296.412,260.462,295.082,260.758,291.24z"/>
			
				<linearGradient id="SVGID_8_" gradientUnits="userSpaceOnUse" x1="109.9863" y1="391.5654" x2="181.0649" y2="391.5654" gradientTransform="matrix(1 0 0 1 94.1841 0)">
				<stop  offset="0" style="stop-color:#5155D4"/>
				<stop  offset="1" style="stop-color:#45F7FF"/>
			</linearGradient>
			<ellipse opacity="0.21" fill="url(#SVGID_8_)" cx="239.71" cy="391.565" rx="35.539" ry="21.117"/>
			<path fill="#113C7A" d="M224.973,387.018c0,0-0.457,3.349,0.152,4.719c0.609,1.218,3.044,2.131,4.719,0.913
				c1.674-1.218,4.566-4.263,4.566-4.263s4.871-2.587,5.328-3.957c0.457-1.37-1.218-2.588-2.588-2.283s-5.328,2.739-7.154,2.739
				S225.582,385.343,224.973,387.018z"/>
			<path fill="#113C7A" d="M219.956,315.734c0,0,4.259,70.308,4.79,72.345c0.531,2.036,6.057,3.206,7.082-0.029
				c0.65-2.054,2.254-67.117,2.254-67.117L219.956,315.734z"/>
			<path fill="#113C7A" d="M239.061,391.201c-0.239,0.205-0.371,0.504-0.374,0.819c-0.009,0.967,0.035,3.122,0.582,3.961
				c0.715,1.097,2.95,2.259,5.29,0.988c1.972-1.071,8.04-5.606,9.272-6.611c0.747-0.609,1.079-1.362,1.226-1.939
				c0.133-0.521-0.133-1.058-0.623-1.276c-0.859-0.383-2.331-0.86-3.646-0.419c-2.01,0.676-4.541,2.853-7.278,2.735
				C241.453,389.371,239.77,390.59,239.061,391.201z"/>
			<path fill="#113C7A" d="M248.462,316.493c-0.308-2.921-3.804-3.871-7.023-2.876c-6.145-0.331-15.659-0.068-15.992,4.7
				c-0.494,7.061,2.816,12.099,6.009,15.526c2.36,2.532,3.93,7.377,4.59,9.738c0.56,18.646,1.795,44.94,2.566,47.458
				c1.242,4.054,7.358,3.871,7.634-0.077C247.485,377.622,248.462,316.493,248.462,316.493z"/>
			
				<linearGradient id="SVGID_9_" gradientUnits="userSpaceOnUse" x1="548.5273" y1="363.5664" x2="541.978" y2="226.8188" gradientTransform="matrix(-1 0 0 1 779.0996 0)">
				<stop  offset="0" style="stop-color:#1AE5FF"/>
				<stop  offset="0.2589" style="stop-color:#64E8F9"/>
				<stop  offset="0.7043" style="stop-color:#EAEEEE"/>
			</linearGradient>
			<path fill="url(#SVGID_9_)" d="M248.479,318.695c-0.722,3.607-11.004,5.411-17.017,4.449s-12.488-3.911-12.274-10.883
				c0,0-0.914-27.855-0.914-33.336c0-5.479,3.447-9.536,3.447-9.536s3.367-3.849,13.95-1.684c0,0,8.622,1.878,12.59,8.252
				c0,0,2.74,7.002,1.827,21.614C249.175,312.186,248.479,318.695,248.479,318.695z"/>
			<path fill="#FF7C40" d="M227.409,259.975c0,0,0.914,5.328,0,7.764c-0.152,1.218,5.175,5.327,9.894,4.262
				c2.74-0.608,2.588-1.979,2.588-1.979s-2.284-3.806-1.979-7.459C238.216,258.909,230.605,259.214,227.409,259.975z"/>
			<g>
				<circle fill="#FF9D6F" cx="232.66" cy="249.244" r="12.558"/>
				<path fill="#FF9D6F" d="M245.218,250.081c0,0,0.152,12.579-2.588,15.118c-2.739,2.539-6.946-2.377-13.671-3.953
					c-6.725-1.728,5.452-14.807,5.452-14.807L245.218,250.081z"/>
			</g>
			<g>
				
					<linearGradient id="SVGID_10_" gradientUnits="userSpaceOnUse" x1="527.9092" y1="361.1035" x2="521.3602" y2="224.3628" gradientTransform="matrix(-1 0 0 1 779.0996 0)">
					<stop  offset="0" style="stop-color:#1AE5FF"/>
					<stop  offset="0.2589" style="stop-color:#64E8F9"/>
					<stop  offset="0.7043" style="stop-color:#EAEEEE"/>
				</linearGradient>
				<path fill="url(#SVGID_10_)" d="M244.203,273.026c0,0,2.751-0.786,5.894,3.732c3.144,4.52,7.663,10.413,9.824,11.396
					s5.108-0.982,6.287-0.982s4.322,5.502,3.144,8.252c-1.179,2.751-8.841,4.126-10.806,4.126s-14.735-7.662-16.504-11.984
					C240.274,283.243,237.523,273.223,244.203,273.026z"/>
				
					<linearGradient id="SVGID_11_" gradientUnits="userSpaceOnUse" x1="512.8135" y1="311.7402" x2="509.4079" y2="285.8055" gradientTransform="matrix(-1 0 0 1 779.0996 0)">
					<stop  offset="0" style="stop-color:#1AE5FF"/>
					<stop  offset="0.2589" style="stop-color:#64E8F9"/>
					<stop  offset="0.7043" style="stop-color:#EAEEEE"/>
				</linearGradient>
				<path fill="url(#SVGID_11_)" d="M264.439,287.762c0,0,0.786-2.161,3.537-2.357c2.751-0.197,5.894,5.108,5.697,8.055
					c-0.196,2.947-4.519,4.52-5.501,3.733S269.155,294.441,264.439,287.762z"/>
			</g>
			<path fill="#843837" d="M240.176,238.644c0,0,4.519,0.982,5.894,7.859c-0.589,2.947-4.715,0.589-6.287,4.519
				s-2.554,5.108-2.554,5.108l-0.982-0.394c0,0,0-3.144-1.375-3.144c-1.375,0-1.769,3.733-0.982,5.305
				c0.786,1.572,2.554,2.358,2.554,2.358s-1.964,3.34-2.947,3.732c-0.982,0.394-4.519-0.393-5.895-0.982
				c-1.375-0.589-3.929-3.34-5.894-6.483c-1.964-3.144-3.733-8.645-2.554-12.378c1.179-3.733,3.93-4.715,3.93-4.715
				s1.572-2.162,4.322-3.144C230.155,235.304,235.264,234.911,240.176,238.644z"/>
			<path fill="#CFDAE4" d="M242.337,270.341l-3.274-1.833c0,0-8.383-0.786-11.396-2.751l-1.572,2.227c0,0,2.096,4.061,7.466,4.584
				c5.37,0.524,7.859-1.571,7.859-1.571L242.337,270.341z"/>
		</g>
		<g opacity="0.67">
			<g>
				<path fill="#1AE5FF" d="M390.076,170.739l-0.01,3.681c-0.006,2.169-2.357,3.519-4.234,2.431l-17.362-10.073
					c-0.872-0.506-1.407-1.438-1.404-2.447l0.011-3.681c0.006-2.17,2.357-3.52,4.233-2.431l17.362,10.073
					C389.544,168.798,390.079,169.731,390.076,170.739z"/>
			</g>
			<g>
				<path fill="#1AE5FF" d="M445,220.744l-0.011,3.689c-0.006,2.167-2.353,3.517-4.229,2.434l-72.338-41.764
					c-0.875-0.505-1.412-1.439-1.409-2.45l0.01-3.689c0.006-2.167,2.353-3.517,4.229-2.434l72.338,41.764
					C444.465,218.799,445.003,219.734,445,220.744z"/>
			</g>
			<g opacity="0.53">
				<path fill="#1AE5FF" d="M415.072,240.177l-0.01,3.689c-0.007,2.167-2.353,3.517-4.229,2.434l-42.514-24.545
					c-0.875-0.505-1.413-1.44-1.41-2.45l0.011-3.689c0.006-2.167,2.353-3.517,4.229-2.434l42.515,24.545
					C414.537,238.233,415.075,239.167,415.072,240.177z"/>
			</g>
			<g>
				<path fill="#1AE5FF" d="M433.731,232.594l-0.011,3.689c-0.006,2.167-2.353,3.517-4.229,2.434l-61.121-35.288
					c-0.875-0.505-1.412-1.439-1.41-2.45l0.011-3.689c0.007-2.167,2.353-3.517,4.229-2.434l61.12,35.288
					C433.196,230.649,433.734,231.583,433.731,232.594z"/>
			</g>
		</g>
		<g opacity="0.67">
			<g>
				<path fill="#1AE5FF" d="M99.905,144.495l0.005,1.894c0.003,1.116,1.213,1.811,2.178,1.251l8.933-5.183
					c0.448-0.26,0.724-0.74,0.722-1.259l-0.005-1.894c-0.003-1.116-1.213-1.811-2.179-1.25l-8.933,5.183
					C100.179,143.497,99.904,143.977,99.905,144.495z"/>
			</g>
			<g>
				<path fill="#1AE5FF" d="M71.647,170.222l0.005,1.898c0.003,1.115,1.21,1.81,2.176,1.252l37.217-21.487
					c0.45-0.26,0.727-0.74,0.725-1.26l-0.005-1.898c-0.003-1.115-1.21-1.81-2.176-1.252l-37.217,21.487
					C71.923,169.222,71.646,169.703,71.647,170.222z"/>
			</g>
			<g opacity="0.53">
				<path fill="#1AE5FF" d="M87.045,180.221l0.005,1.898c0.003,1.115,1.21,1.81,2.176,1.252l21.873-12.628
					c0.45-0.26,0.727-0.741,0.726-1.26l-0.005-1.898c-0.003-1.115-1.21-1.81-2.176-1.252L87.771,178.96
					C87.32,179.22,87.043,179.701,87.045,180.221z"/>
			</g>
			<g>
				<path fill="#1AE5FF" d="M77.445,176.319l0.005,1.898c0.003,1.115,1.21,1.81,2.176,1.252l31.446-18.156
					c0.45-0.26,0.727-0.74,0.725-1.26l-0.005-1.898c-0.003-1.115-1.21-1.81-2.176-1.252L78.17,175.059
					C77.721,175.318,77.444,175.799,77.445,176.319z"/>
			</g>
		</g>
		<g>
			<linearGradient id="SVGID_12_" gradientUnits="userSpaceOnUse" x1="231.1177" y1="217.4326" x2="258.7747" y2="164.7114">
				<stop  offset="0" style="stop-color:#CC68FF"/>
				<stop  offset="1" style="stop-color:#FB8E31"/>
			</linearGradient>
			<circle fill="url(#SVGID_12_)" cx="234.428" cy="211.121" r="15"/>
			<polygon fill="#FFFFFF" points="233.135,218.021 226.874,213.442 229.152,210.328 232.4,212.702 238.983,204.308 242.02,206.689 
							"/>
		</g>
		<g opacity="0.46">
			<path fill="#1AE5FF" d="M214.869,144.69c3.536,2.042,6.398,6.999,6.387,11.063c-0.012,4.088-2.893,5.73-6.429,3.688
				l-58.249-33.63c-3.536-2.042-6.398-7-6.387-11.087c0.012-4.063,2.893-5.705,6.429-3.664L214.869,144.69z"/>
		</g>
		<g opacity="0.46">
			<path fill="#1AE5FF" d="M435.689,322.761c2.458,1.419,4.447,4.865,4.439,7.689c-0.008,2.841-2.011,3.982-4.468,2.563
				l-40.487-23.375c-2.457-1.419-4.447-4.865-4.438-7.706c0.008-2.824,2.011-3.966,4.468-2.547L435.689,322.761z"/>
		</g>
		<g>
			
				<linearGradient id="SVGID_13_" gradientUnits="userSpaceOnUse" x1="538.7119" y1="313.9854" x2="593.402" y2="264.8036" gradientTransform="matrix(1 0 0 1 -454.1494 0)">
				<stop  offset="0" style="stop-color:#92F3FF"/>
				<stop  offset="1" style="stop-color:#FFFFFF"/>
			</linearGradient>
			<path fill="url(#SVGID_13_)" d="M156.561,280.66c1.498,0.864,1.503,2.264,0.018,3.127l-49.746,28.909
				c-1.488,0.865-3.901,0.865-5.399,0l-30.68-17.713c-1.495-0.863-1.506-2.263-0.018-3.128l49.745-28.908
				c1.486-0.864,3.904-0.864,5.399-0.001L156.561,280.66z"/>
		</g>
		<g>
			<g opacity="0.21">
				<linearGradient id="SVGID_14_" gradientUnits="userSpaceOnUse" x1="113.0522" y1="363.3691" x2="186.0654" y2="363.3691">
					<stop  offset="0" style="stop-color:#5155D4"/>
					<stop  offset="1" style="stop-color:#45F7FF"/>
				</linearGradient>
				<path fill="url(#SVGID_14_)" d="M123.829,348.419c-14.3,8.256-14.381,21.646-0.168,29.904c14.208,8.257,37.328,8.257,51.628,0
					c14.306-8.259,14.375-21.648,0.168-29.904C161.244,340.159,138.134,340.159,123.829,348.419z"/>
			</g>
			<g>
				<path fill="#5155D4" d="M141.211,367.25c0,0-6.576,1.716-9.149,1.716c-2.573,0,0,2.573,4.289,2.858
					c4.289,0.286,8.291,0.572,9.149-0.571s-0.19-4.384-0.19-4.384L141.211,367.25z"/>
				<path fill="#5155D4" d="M159.509,361.246c0,0-6.576,1.715-9.149,1.715s0,2.573,4.289,2.859c4.289,0.286,8.292,0.572,9.149-0.572
					c0.857-1.144-0.191-4.384-0.191-4.384L159.509,361.246z"/>
				<path fill="#343996" d="M160.938,290.245c0,0,2.383,65.378,2.764,72.239c0,0-1.906,1.525-4.193,0.763
					c0,0-7.72-42.886-8.863-53.941c-1.144-11.055-3.05-14.867-3.05-14.867L160.938,290.245z"/>
				<path fill="#343996" d="M136.541,294.058c0,0-2.287,37.739,4.575,74.336c0,0,2.287,1.144,4.193-1.524
					c0,0,4.193-64.044,5.337-73.193C151.79,284.527,139.591,292.151,136.541,294.058z"/>
				<path fill="#343996" d="M146.833,323.029c0,0,3.813-10.674,7.244-16.393c3.431-5.718,2.668-14.104,2.668-14.104l-12.961,1.144
					L146.833,323.029z"/>
				<path fill="#FF9D6F" d="M133.634,256.749l-11.328-5.492c0,0-3.433-3.433-4.291-4.12s-6.522-2.06-7.552-1.888
					c-1.03,0.171-2.918,1.716-2.403,2.06c0.515,0.343,5.321,2.917,5.493,3.948c0.171,1.029-1.717,2.403-1.03,3.089
					c0.687,0.688,2.231-0.686,3.261-0.686s3.948,1.373,3.948,1.373l10.985,6.351L133.634,256.749z"/>
				<g>
					<path fill="#FF3D9D" d="M157.794,245.738c0,0-2.097-2.287-5.528,2.097s-6.29,10.865-11.055,10.293
						c-4.765-0.571-12.58-4.384-12.58-4.384s-3.431,2.287-2.859,5.718c0,0,11.055,8.196,18.489,7.815
						c7.434-0.382,15.439-8.006,17.154-13.343S157.794,245.738,157.794,245.738z"/>
				</g>
				<path fill="#FF3D9D" d="M134.87,293.976c0.684,3.418,10.424,5.127,16.121,4.216c5.696-0.912,11.83-3.706,11.627-10.311
					c0,0,0.865-26.388,0.865-31.578c0-5.191-3.265-9.034-3.265-9.034s-3.19-3.646-13.215-1.595c0,0-8.167,1.779-11.927,7.816
					c0,0-2.596,6.633-1.73,20.477C134.211,287.81,134.87,293.976,134.87,293.976z"/>
				<path fill="#FF7C40" d="M154.831,238.35c0,0-0.865,5.047,0,7.354c0.145,1.153-4.902,5.046-9.373,4.038
					c-2.596-0.577-2.452-1.875-2.452-1.875s2.163-3.605,1.875-7.065C144.593,237.34,151.803,237.629,154.831,238.35z"/>
				<g>
					<circle fill="#FF9D6F" cx="149.856" cy="228.184" r="11.896"/>
					<path fill="#FF9D6F" d="M137.959,228.977c0,0-0.144,11.917,2.452,14.322c2.595,2.405,6.58-2.252,12.951-3.745
						c6.371-1.637-5.165-14.027-5.165-14.027L137.959,228.977z"/>
				</g>
				<g>
					<path fill="#FF9D6F" d="M123.239,267.968c0,0-16.656-7.418-18.896-8.678c-2.239-1.26-3.919-5.879-4.759-6.858
						s-4.619-3.219-4.479-2.24c0.14,0.98,2.1,2.799,2.1,2.799s-1.4,2.38-1.68,3.92c-0.28,1.539,1.82,4.618,2.939,5.458
						s3.779,1.12,3.779,1.12s13.577,9.098,15.816,9.238C120.299,272.867,123.519,271.607,123.239,267.968z"/>
					<path fill="#FF3D9D" d="M138.066,252.886c0,0-2.097-2.287-5.528,2.097c-3.431,4.385-6.29,10.865-11.055,10.293
						c-4.766-0.571-12.58-4.384-12.58-4.384s-3.431,2.287-2.859,5.719c0,0,11.055,8.195,18.489,7.814
						c7.434-0.381,15.439-8.006,17.155-13.343S138.066,252.886,138.066,252.886z"/>
				</g>
				<g>
					<path fill="#843837" d="M142.736,218.142c0,0-4.281,0.931-5.583,7.445c0.558,2.792,4.467,0.559,5.956,4.281
						c1.489,3.723,2.42,4.839,2.42,4.839l0.93-0.372c0,0,0-2.978,1.303-2.978c1.303,0,1.675,3.536,0.931,5.025
						c-0.745,1.489-2.42,2.233-2.42,2.233s1.861,3.165,2.792,3.537c0.931,0.373,4.281-0.372,5.583-0.931
						c1.303-0.558,3.723-3.164,5.583-6.142c1.861-2.978,3.537-8.189,2.42-11.726c-1.117-3.536-3.723-4.467-3.723-4.467
						s-1.489-2.047-4.095-2.978C152.229,214.978,147.39,214.606,142.736,218.142z"/>
					<path fill="#843837" d="M141.783,226.011c0,0,2.859,3.431,1.43,8.292c-1.43,4.86,0.572,4.86,2.573,11.15
						c2.001,6.29-3.717,13.723,1.715,22.873s20.014,8.006,26.589-1.144c6.576-9.149-3.717-15.725-4.002-24.017
						c-0.286-8.291,6.29-13.151-1.144-18.87c-7.433-5.718-10.579-12.008-19.728-9.435S137.78,222.008,141.783,226.011z"/>
				</g>
			</g>
		</g>
	</g>
</g>
<g id="DESIGNED_BY_FREEPIK">
</g>
</svg>
