<svg id="Calque_1" data-name="Calque 1" xmlns="http://www.w3.org/2000/svg" xmlns:xlink="http://www.w3.org/1999/xlink" viewBox="0 0 301.39 192.34"><defs><style>.cls-1{fill:url(#Dégradé_sans_nom_18);}.cls-2{fill:url(#Dégradé_sans_nom_41);}.cls-3{fill:url(#Dégradé_sans_nom_28);}</style><linearGradient id="Dégradé_sans_nom_18" x1="145.89" y1="164.82" x2="265.47" y2="164.82" gradientUnits="userSpaceOnUse"><stop offset="0" stop-color="aqua"/><stop offset="1" stop-color="#0071bc"/></linearGradient><linearGradient id="Dégradé_sans_nom_41" x1="57.74" y1="164.82" x2="182.42" y2="164.82" gradientUnits="userSpaceOnUse"><stop offset="0" stop-color="#0071bc"/><stop offset="1" stop-color="#2e3192"/></linearGradient><linearGradient id="Dégradé_sans_nom_28" x1="49.61" y1="198.4" x2="351" y2="198.4" gradientUnits="userSpaceOnUse"><stop offset="0" stop-color="#2e3192"/><stop offset="1" stop-color="#0071bc"/></linearGradient></defs><title>logo AFO</title><path class="cls-1" d="M265.47,91.66V112.8a85.57,85.57,0,0,0-41,10.44H182.42v31.59h42v31.58h-42V238l-12.88-51.56L145.89,91.66Z" transform="translate(-49.61 -91.66)"/><path class="cls-2" d="M169.54,186.41,145.89,91.66H94.36L70.64,186.41,57.74,238H97.37l14.08-51.56H128L140.89,238h41.53Zm-58.15-31.58,8.34-31.59,8.34,31.59Z" transform="translate(-49.61 -91.66)"/><path class="cls-3" d="M351,198.39A85.55,85.55,0,0,1,265.49,284H49.61V252.42H199.15A85.11,85.11,0,0,1,189.63,238a83.58,83.58,0,0,1-7.21-19.21V186.41h28.17a56.81,56.81,0,0,0-1.16,9.66c0,.61,0,1.22,0,1.84v.72a56.15,56.15,0,0,0,42.69,53.79c.64.15,1.25.3,1.88.43A56.55,56.55,0,0,0,265.47,254h0a56.11,56.11,0,1,0-27.71-104.89l-.37.22a55.94,55.94,0,0,0-13,10.32v-4.85H191.86c1.09-1.88,2.27-3.7,3.51-5.47q1.57-2.27,3.28-4.39a85.83,85.83,0,0,1,25.85-21.73,85.57,85.57,0,0,1,41-10.44c2.77,0,5.52.13,8.23.39A85.57,85.57,0,0,1,351,198.39Z" transform="translate(-49.61 -91.66)"/></svg>